<?xml version="1.0" encoding="utf-8"?>
<!-- Generator: Adobe Illustrator 21.1.0, SVG Export Plug-In . SVG Version: 6.00 Build 0)  -->
<svg version="1.1" id="Layer_1" xmlns="http://www.w3.org/2000/svg" xmlns:xlink="http://www.w3.org/1999/xlink" x="0px" y="0px"
	 viewBox="0 0 2048 792" style="enable-background:new 0 0 2048 792;" xml:space="preserve">
<style type="text/css">
	.st0{opacity:0.4;}
	.st1{fill:#373737;}
	.st2{font-family:'MuseoSansCyrl-300';}
	.st3{font-size:48px;}
	.st4{fill:none;stroke:#DCDCDC;stroke-width:2;stroke-linecap:square;}
	.st5{fill:none;stroke:#DCDCDC;stroke-width:2;stroke-linecap:round;stroke-linejoin:round;}
</style>
<title>Group 26</title>
<desc>Created with Sketch.</desc>
<g id="Page-1" class="st0">
	<g id="Роза-хутор-Copy-2" transform="translate(0.000000, -3107.000000)">
		<g id="Что-входит-в-стоимость" transform="translate(-17.000000, 3104.000000)">
			<g id="Group-18">
				<g id="Group-21">
					<g id="Group-26">
						<g id="Group-25">
							<g id="Group-24">
								<text transform="matrix(1 0 0 1 739.104 45)" class="st1 st2 st3"> </text>
							</g>
						</g>
						<path id="Line-2" class="st4" d="M2138,385L31,713L2138,385z"/>
						<polygon id="Line-2_1_" class="st4" points="2149,415 42,743 473.4,675.8 						"/>
						<path id="Line-2_2_" class="st4" d="M874,163.7c100.9-37.8,223.1-31.5,357,26.3"/>
						<path id="Line-2_3_" class="st4" d="M1307,217.1c120.5,26.5,241-91.6,375-34.1c83.5,34.1,276.5,79.2,412,34.1"/>
						<path id="Line-2_4_" class="st4" d="M0,229c134.3,5.3,239.3-2.3,315-23c74.7-20.4,263.6-91,452.9-8c4.7,0,7.7,0,9.1,0"/>
						<path id="Line-2_5_" class="st4" d="M1643.4,312.6c-4.8,9.4-30.5,7.2-27.2-13.5c-17.2,4.3-22.9-13.9-13.8-20.4
							c-5.8-1.4-5.8-8.8,0-10.5c-13-9.6-4.5-29.8,10.9-27c-5.7-10.3,9.7-18.3,17.5-11.8c3.6-17.7,31.6-17.7,36,0
							c14.4-5.1,24.3,5.4,20.7,19.6c5.5-1.2,9.5,4.2,7.5,10.3c15.4,6.4,13,33.3-6,33.3c2.7,18.7-15,29.7-32.8,20.1"/>
						<path id="Line-2_6_" class="st4" d="M1257.1,244.9c-3.7,7.2-23.2,5.5-20.7-10.4c-13.1,3.3-17.5-10.6-10.5-15.6
							c-4.4-1.1-4.4-6.8,0-8.1c-9.9-7.4-3.4-22.8,8.3-20.7c-4.3-7.9,7.4-14,13.3-9.1c2.7-13.5,24.1-13.5,27.4,0
							c10.9-3.9,18.5,4.2,15.7,15c4.2-0.9,7.2,3.2,5.7,7.9c11.7,4.9,9.9,25.5-4.6,25.5c2.1,14.3-11.4,22.7-25,15.4"/>
						<path id="Line-2_7_" class="st4" d="M1264.6,236c10.5-6.8,10.9-15.8,15-12.1c6.5,5.8-12.5,17.4-14.2,22.2
							c0,9,1.8,13.6,9.3,22.3c-1.1,1.9-17.6,4.9-26.4,0c2-3.1,10-9.7,10-22.3c-10-7.8-17-14.7-13.3-17.6c4.2-3.4,13.3,10.9,13.3,7.5
							c0-8.8-1.4-20,2.3-20C1265.4,216,1263.6,223.8,1264.6,236z"/>
						<path id="Line-2_8_" class="st4" d="M779,198c120.8,99.2,340.7,141.8,557,154c329.3,9.7,582.2,12.7,758.5,9"/>
						<path id="Line-2_9_" class="st4" d="M769,198c90,110.1,196,209,886,209c122.1,1.3,272.1-4.7,450-18"/>
						<path id="Line-2_10_" class="st5" d="M685.3,168.9c19.3-108.4,152.6-96.3,170.1-21.7"/>
						<path id="Line" class="st4" d="M1661.5,175c-46.2-28.1-76-49.4-89.4-63.9c-33-35.7-42-41-59.6-62.1c-6.2-7.5-27.1,9.2-62.4,50
							"/>
						<path id="Line_1_" class="st4" d="M1535,175c-105.9-70-120.7-137.3-168-167.5c-28.2-18-84.2,37.8-168,167.5"/>
						<path id="Line-2_11_" class="st4" d="M703.6,738.5c45.8-42.7,88-56.2,175.9-28.8"/>
						<path id="Line-2_12_" class="st4" d="M573.1,734.1c45.8-42.7,88-56.2,175.9-28.8"/>
						<path id="Line-2_13_" class="st4" d="M871.9,724.2c27.5-40.3,99.7,0,113.5,29.8"/>
						<path id="Line-2_14_" class="st4" d="M242,508.5c6.7,13.2,42.6,10.1,37.9-19c24,6,32-19.5,19.3-28.7c8.1-2,8.1-12.4,0-14.8
							c18.1-13.5,6.3-41.8-15.2-37.9c7.9-14.5-13.6-25.7-24.4-16.6c-5-24.8-44.1-24.8-50.2,0c-20-7.2-33.8,7.6-28.8,27.5
							c-7.7-1.7-13.3,5.9-10.4,14.5c-21.4,9-18.1,46.7,8.4,46.7c-3.8,26.3,20.9,41.7,45.8,28.3"/>
						<path id="Line-2_15_" class="st4" d="M1911.9,780.1c-45.8-42.7-88-56.2-175.9-28.8"/>
						<path id="Line-2_16_" class="st4" d="M1775.9,790.2c-43.2-70.8-200.6-104-289.4,2.8"/>
						<path id="Line-2_17_" class="st4" d="M1653.3,301.1c13.9-8.8,14.4-20.7,19.9-15.9c8.7,7.6-16.5,22.8-18.8,29
							c0,11.8,2.3,17.8,12.4,29.2c-1.4,2.5-23.3,6.5-35,0c2.6-4.1,13.2-12.7,13.2-29.2c-13.2-10.2-22.5-19.2-17.7-23
							c5.6-4.4,17.7,14.2,17.7,9.8c0-11.6-1.9-26.1,3.1-26.1C1654.4,275,1652,285.3,1653.3,301.1z"/>
						<path id="Line-2_18_" class="st4" d="M229.1,492.3c-19.3-12.3-20-28.7-27.6-22.1c-12,10.6,22.9,31.6,26.1,40.3
							c0,16.4-3.3,24.8-17.2,40.6c1.9,3.5,32.4,9,48.6,0c-3.6-5.7-18.4-17.7-18.4-40.6c18.4-14.2,31.2-26.7,24.5-31.9
							c-7.7-6.1-24.5,19.7-24.5,13.7c0-16.1,2.6-36.3-4.3-36.3C227.6,456,230.9,470.2,229.1,492.3z"/>
						<path id="Line-3" class="st5" d="M627,142.6l37.1,11.1"/>
						<path id="Line-2_19_" class="st4" d="M844.6,196.1c-2.6,5.1-16.5,3.9-14.7-7.3c-9.3,2.3-12.4-7.5-7.5-11
							c-3.1-0.8-3.1-4.8,0-5.7c-7-5.2-2.5-16.1,5.9-14.6c-3.1-5.6,5.3-9.9,9.5-6.4c1.9-9.5,17.1-9.5,19.5,0
							c7.8-2.8,13.1,2.9,11.2,10.6c3-0.6,5.1,2.3,4,5.6c8.3,3.5,7,17.9-3.3,17.9c1.5,10.1-8.1,16-17.8,10.9"/>
						<path id="Line-2_20_" class="st4" d="M850.5,190.2c7.4-4.8,7.7-11.2,10.5-8.6c4.6,4.1-8.7,12.3-10,15.7
							c0,6.4,1.2,9.7,6.6,15.8c-0.7,1.4-12.4,3.5-18.6,0c1.4-2.2,7-6.9,7-15.8c-7-5.5-11.9-10.4-9.4-12.5c3-2.4,9.4,7.7,9.4,5.3
							c0-6.3-1-14.2,1.6-14.2C851,176,849.8,181.6,850.5,190.2z"/>
						<path id="Line-3_1_" class="st5" d="M930.1,98.3L877.9,123"/>
						<path id="Line-3_2_" class="st5" d="M830.9,28l-14.8,41"/>
						<path id="Line-3_3_" class="st5" d="M869.4,17.7l-34.1,61"/>
						<path id="Line-3_4_" class="st5" d="M769,34.1l2,28.9"/>
						<path id="Line-3_5_" class="st5" d="M789.3,15.1L786,63.8"/>
						<path id="Line-3_6_" class="st5" d="M715.3,17l18.3,53.1"/>
						<path id="Line-3_7_" class="st5" d="M669,73.2l24,23.1"/>
						<path id="Line-3_8_" class="st5" d="M622.2,83l54.3,36.6"/>
						<path id="Line-2_21_" class="st4" d="M778,197c16.5-7.2,25.4-10.4,41-16"/>
						<path id="Line-3_9_" class="st5" d="M871.6,66.3l-20.4,22.3"/>
					</g>
				</g>
			</g>
		</g>
	</g>
</g>
</svg>
