<?xml version="1.0" encoding="UTF-8"?>
<svg width="107px" height="205px" viewBox="0 0 107 205" version="1.1" xmlns="http://www.w3.org/2000/svg" xmlns:xlink="http://www.w3.org/1999/xlink">
    <!-- Generator: Sketch 52.2 (67145) - http://www.bohemiancoding.com/sketch -->
    <title>ufo</title>
    <desc>Created with Sketch.</desc>
    <g id="Page-1" stroke="none" stroke-width="1" fill="none" fill-rule="evenodd">
        <g id="Роза-хутор-Copy-2" transform="translate(-78.000000, -420.000000)">
            <g id="Первый-экран" transform="translate(-17.000000, -64.000000)">
                <g id="ufo" transform="translate(95.000000, 484.000000)">
                    <g id="Group" transform="translate(0.000000, 17.000000)" fill="#FFFFFF" fill-rule="nonzero">
                        <path d="M52.5,55.8842105 C27.0486364,55.8842105 0,49.6347368 0,38.0515789 C0,31.8147368 8.49227273,26.3705263 23.3068182,23.1147368 C24.15,22.9284211 25.0122727,23.4589474 25.2031818,24.3147368 C25.3940909,25.1673684 24.8531818,26.0105263 23.9940909,26.2 C11.3495455,28.9757895 3.18181818,33.6305263 3.18181818,38.0515789 C3.18181818,44.9894737 23.4372727,52.7231579 52.5,52.7231579 C81.5627273,52.7231579 101.818182,44.9894737 101.818182,38.0515789 C101.818182,33.6368421 93.6536364,28.9821053 81.0186364,26.1968421 C80.1595455,26.0042105 79.6218182,25.1642105 79.8095455,24.3115789 C80.0036364,23.4589474 80.8531818,22.9378947 81.7090909,23.1115789 C96.5109091,26.3736842 105,31.8210526 105,38.0484211 C105,49.6347368 77.9513636,55.8842105 52.5,55.8842105 Z" id="Shape"></path>
                        <path d="M52.6718182,42.1663158 C37.6313636,42.1663158 21.6490909,38.32 21.6490909,31.1926316 C21.6490909,30.3210526 22.3618182,29.6136842 23.24,29.6136842 C24.1181818,29.6136842 24.8309091,30.3210526 24.8309091,31.1926316 C24.8309091,34.4547368 35.4231818,39.0084211 52.6718182,39.0084211 C69.9204545,39.0084211 80.5127273,34.4578947 80.5127273,31.1926316 C80.5127273,30.3210526 81.2254545,29.6136842 82.1036364,29.6136842 C82.9818182,29.6136842 83.6945455,30.3210526 83.6945455,31.1926316 C83.6913636,38.32 67.7090909,42.1663158 52.6718182,42.1663158 Z" id="Shape"></path>
                        <path d="M82.1004545,32.7715789 C81.2222727,32.7715789 80.5095455,32.0642105 80.5095455,31.1926316 C80.5095455,15.8642105 67.9445455,3.39368421 52.4968182,3.39368421 C37.0522727,3.39368421 24.4872727,15.8642105 24.4872727,31.1926316 C24.4872727,32.0642105 23.7745455,32.7715789 22.8963636,32.7715789 C22.0181818,32.7715789 21.3054545,32.0642105 21.3054545,31.1926316 C21.3054545,14.1242105 35.2959091,0.235789474 52.4968182,0.235789474 C69.6977273,0.235789474 83.6913636,14.1210526 83.6913636,31.1926316 C83.6913636,32.0673684 82.9818182,32.7715789 82.1004545,32.7715789 Z" id="Shape"></path>
                    </g>
                    <g id="Group" transform="translate(13.000000, 67.000000)" fill="#FFFFFF" fill-rule="nonzero">
                        <path d="M76.75008,14.701 L71.8426,14.701 C71.24852,14.701 70.70184,14.3653333 70.43324,13.8333333 L64.64096,2.36366667 C64.24596,1.58466667 64.5588,0.6315 65.33932,0.235666667 C66.11668,-0.157 67.06784,0.1565 67.46284,0.9355 L72.81588,11.5375 L76.75324,11.5375 C77.6254,11.5375 78.33324,12.2468333 78.33324,13.1208333 C78.33324,13.9948333 77.62224,14.701 76.75008,14.701 Z" id="Shape"></path>
                        <path d="M7.16056,14.7548333 L2.25308,14.7548333 C1.38092,14.7548333 0.67308,14.0455 0.67308,13.1715 C0.67308,12.2975 1.38092,11.5881667 2.25308,11.5881667 L6.18728,11.5881667 L11.54032,0.986166667 C11.93532,0.207166667 12.88648,-0.1 13.66384,0.286333333 C14.44436,0.682166667 14.75404,1.63533333 14.3622,2.41433333 L8.56992,13.884 C8.29816,14.416 7.75464,14.7548333 7.16056,14.7548333 Z" id="Shape"></path>
                    </g>
                    <path d="M51.5,19 C50.672,19 50,18.2830088 50,17.3995732 L50,8.60042678 C50,7.7169912 50.672,7 51.5,7 C52.328,7 53,7.7169912 53,8.60042678 L53,17.3995732 C53,18.2862097 52.328,19 51.5,19 Z" id="Shape" fill="#FFFFFF" fill-rule="nonzero"></path>
                    <path d="M52,10 C49.2430769,10 47,7.75692308 47,5 C47,2.24307692 49.2430769,0 52,0 C54.7569231,0 57,2.24307692 57,5 C57,7.75692308 54.7569231,10 52,10 Z M52,3.07692308 C50.9384615,3.07692308 50.0769231,3.93846154 50.0769231,5 C50.0769231,6.06153846 50.9384615,6.92307692 52,6.92307692 C53.0615385,6.92307692 53.9230769,6.06153846 53.9230769,5 C53.9230769,3.93846154 53.0584615,3.07692308 52,3.07692308 Z" id="Shape" fill="#FFFFFF" fill-rule="nonzero"></path>
                    <path d="M64.3529412,81.3588235 L105.5,203.5" id="Line-3" stroke="#FFFFFF" stroke-width="3" stroke-linecap="round" stroke-linejoin="round" stroke-dasharray="5,6"></path>
                    <path d="M53.3529412,81.3588235 L55.5,142.5" id="Line-3" stroke="#FFFFFF" stroke-width="3" stroke-linecap="round" stroke-linejoin="round" stroke-dasharray="5,6"></path>
                    <path d="M42.3529412,81.3588235 L9.5,206.5" id="Line-3" stroke="#FFFFFF" stroke-width="3" stroke-linecap="round" stroke-linejoin="round" stroke-dasharray="5,6"></path>
                    <path d="M68.9811544,157.651374 C65.9400082,157.13663 55.7886934,155.064125 52.8305949,149.992247 C52.7925846,149.927244 52.7520189,149.864881 52.7117727,149.801858 C53.1714103,149.387753 53.2931072,148.682619 52.9660267,148.12564 L51.1789021,145.081721 C50.8016735,144.43994 49.979181,144.246911 49.3687797,144.674545 C48.7951111,145.076441 48.6727753,145.903331 49.0321167,146.515415 L49.5878981,147.462082 C49.3087298,147.38619 49.023812,147.334386 48.7357,147.305679 L47.1935664,144.678834 C46.8476404,144.089518 46.1212917,143.824557 45.5204728,144.124165 C44.8311762,144.467987 44.5928929,145.339093 44.9800234,145.999021 L46.0206761,147.771918 C45.5709403,147.982435 45.147716,148.254986 44.7669738,148.589899 C43.7854128,149.452426 42.6965285,150.358177 41.5297071,151.282737 C41.3233652,151.446069 41.1524784,151.662855 41.0697501,151.917258 C40.866283,152.543859 41.1240505,153.1863 41.6338362,153.493496 C44.6883978,155.333706 45.7443825,157.278515 46.2385168,159.880942 C46.2401139,159.89711 46.2449051,159.913278 46.2474604,159.929447 C46.4611488,161.074752 46.5691109,162.346434 46.6908079,163.793327 C46.7112504,164.03618 46.7320123,164.281344 46.7537325,164.530136 C46.9492143,166.779502 46.6227725,169.057904 45.7153157,171.112261 C44.8439527,173.084787 43.8243814,174.15585 43.7953147,174.185877 C43.2928755,174.694022 43.2826543,175.526521 43.7729557,176.048524 C44.0233767,176.315135 44.3562067,176.448771 44.6893561,176.448771 C45.0103677,176.448771 45.3313794,176.324704 45.5795645,176.075581 C45.7025391,175.952175 48.1962088,173.396933 49.1419953,168.762256 C49.7325929,169.231135 50.4678853,169.772277 51.3539413,170.354663 C51.194234,172.734695 49.610896,176.286099 48.954499,177.5591 C48.6226272,178.2022 48.8583552,179.001703 49.4805748,179.344536 C49.6722236,179.449795 49.8779265,179.499949 50.0807548,179.499949 C50.5375177,179.499949 50.9789486,179.246537 51.2089271,178.801745 C51.448488,178.338145 53.1714103,174.928626 53.7418847,171.794627 C55.6344161,172.842923 57.9658231,173.930815 60.7706026,174.906189 C59.9062667,176.612103 58.0788959,178.081103 57.3305075,178.56879 C56.7338411,178.956168 56.5530525,179.76953 56.9270869,180.386893 C57.169842,180.786809 57.5860392,181.006565 58.0114994,181.006565 C58.243075,181.006565 58.4775253,180.941562 58.6883389,180.805287 C58.8362279,180.709268 61.9508395,178.66514 63.2403161,175.695133 C63.7290204,175.838337 64.2253907,175.978902 64.7386899,176.113527 C65.0539521,176.196348 65.3724084,176.238254 65.6851153,176.238254 C65.6854347,176.238254 65.6854347,176.238254 65.6857541,176.238254 C65.8422673,176.238254 65.994628,176.226045 66.1444335,176.206907 C65.2963878,179.67252 63.556856,181.782641 63.5335387,181.810358 C63.0697487,182.357109 63.1214939,183.188948 63.6494862,183.670036 C63.8925607,183.891442 64.1937686,184 64.4940183,184 C64.8479297,184 65.2005634,183.848876 65.4529009,183.553229 C65.5669319,183.419593 68.126401,180.372044 68.9242986,175.383647 C68.924618,175.381007 68.9252568,175.378367 68.9255762,175.375728 C69.0229977,174.758035 69.227423,174.15981 69.5634472,173.639126 C70.8206629,171.690358 71.6383643,168.978713 72.1957427,166.7013 C72.4059175,165.841744 72.8297807,163.887696 72.8725822,163.699287 C73.1779426,162.357323 72.9284798,160.931218 72.1883962,159.787232 C71.4543815,158.649846 70.2850047,157.87179 68.9811544,157.651374 Z M69.1212918,170 C68.4274639,169.884378 67.7048143,169.69633 66.9832192,169.430009 C65.6240334,168.930172 64.4145795,168.215978 63.6655686,167.469956 C63.0624234,166.869436 62.9713892,166.459238 63.0065375,166.378368 C63.1534575,166.037672 65.2177187,165.607013 68.1649059,166.694379 C68.8267489,166.938615 69.444305,167.233191 70,167.556998 C69.7019422,168.50211 69.4084537,169.310815 69.1212918,170 Z M58.0206536,157 C59.150092,157.63127 60.466827,158.23769 62,158.791993 C61.6081483,159.52301 60.9316735,160 60.1756967,160 C58.9760928,160 58,158.80925 58,157.34549 C58,157.228831 58.0087707,157.113898 58.0206536,157 Z M50.3888405,165 C50.1102493,165 49.8417887,164.976871 49.5872576,164.931429 C49.5290067,164.887075 49.4745548,164.84517 49.4280174,164.808435 C49.3599525,164.242177 49.3045509,163.695782 49.2504155,163.164082 C49.1744361,162.414966 49.1009893,161.694422 49,161 C50.6034824,161.384218 52.8774832,163.027211 53,163.664762 C53,164.296327 51.9277404,165 50.3888405,165 Z M65.2349914,173 C65.1339775,173 65.0268899,172.985899 64.916286,172.957697 C58.9743627,171.446007 54.7813238,169.29208 52.1421739,167.59291 C53.9127954,166.94074 55.1156928,165.526795 55.1156928,163.84461 C55.1156928,162.257928 53.4518392,160.74111 52.4599203,159.978695 C51.8822866,159.534514 49.882146,158.108391 48.0191414,158.050705 C47.4331965,155.916969 46.3335507,154.010771 44,152.276349 C44.6872786,151.727051 45.3416318,151.187688 45.9563466,150.663388 C46.4575805,150.235551 47.0975488,150 47.7586149,150 C48.2672011,150 48.7668367,150.139728 49.203818,150.403481 C49.5918907,150.637749 49.9291367,150.981621 50.1787946,151.39696 C50.8663929,152.541063 52.2147377,154.131591 54.8171262,155.697121 C54.6576136,156.19354 54.5732222,156.713675 54.5732222,157.243744 C54.5732222,160.016512 56.8233404,162.27235 59.5887578,162.27235 C61.6183076,162.27235 63.3997977,161.045243 64.1829757,159.259224 C65.3948237,159.54541 66.7009727,159.809163 68.119324,160.04215 C68.7365961,160.14342 69.2681981,160.487292 69.6166324,161.009991 C69.9698616,161.54038 70.0839819,162.175886 69.9382149,162.798894 C69.8934618,162.988937 69.6517955,164.05901 69.5859446,164.337504 C69.1422503,164.096826 68.6755402,163.875697 68.1922075,163.682129 C64.4092981,162.167554 61.0387559,162.638335 60.1772601,164.801555 C59.9090616,165.476159 59.6952061,166.863825 61.2775452,168.572929 C62.2221538,169.593329 63.6235628,170.506688 65.2222049,171.144438 C65.7969616,171.37454 66.3787509,171.560096 66.954147,171.701427 C66.2994741,172.689458 65.7128898,173 65.2349914,173 Z" id="Shape" fill="#FFFFFF" fill-rule="nonzero" transform="translate(57.000000, 164.000000) rotate(-39.000000) translate(-57.000000, -164.000000) "></path>
                </g>
            </g>
        </g>
    </g>
</svg>