<?xml version="1.0" encoding="UTF-8"?>
<svg width="303px" height="723px" viewBox="0 0 303 723" version="1.1" xmlns="http://www.w3.org/2000/svg" xmlns:xlink="http://www.w3.org/1999/xlink">
    <!-- Generator: Sketch 52.2 (67145) - http://www.bohemiancoding.com/sketch -->
    <title>Шарик с веревкой</title>
    <desc>Created with Sketch.</desc>
    <g id="Page-1" stroke="none" stroke-width="1" fill="none" fill-rule="evenodd" stroke-linecap="round" stroke-linejoin="round">
        <g id="Роза-хутор" transform="translate(-1297.000000, -44.000000)" stroke="#FFFFFF" stroke-width="3">
            <g id="Group">
                <g id="Шарик-с-веревкой" transform="translate(1298.000000, 46.000000)">
                    <path d="M147.5989,107.52467 C169.350102,107.52467 189,72.4533934 189,42.7612757 C189,13.069158 169.350102,0 147.5989,0 C125.847697,0 106,13.069158 106,42.7612757 C106,72.4533934 125.847697,107.52467 147.5989,107.52467 Z" id="Oval"></path>
                    <path d="M6.9375,479.25 C-46.9179688,531.804687 271.59375,433.652344 180.902344,490.078125" id="Line"></path>
                    <path d="M103.019531,236.005859 C57.515625,270.921875 201.171875,295.287109 154.271484,322.476562" id="Line"></path>
                    <path d="M119.099609,159.957031 C73.5957031,194.873047 213.195312,184.501953 166.294922,211.691406" id="Line"></path>
                    <path d="M147.076172,110.337891 C142.304687,134.016602 152.248047,132.160156 147.076172,143.285156" id="Line"></path>
                    <path d="M148,109 L152.5,119" id="Line"></path>
                    <path d="M146.5,108.5 L139.5,117.5" id="Line"></path>
                    <path d="M131.600586,20 C126.800293,22.3974609 122.796875,31.2128906 122.796875,35.9472656" id="Line"></path>
                    <path d="M152.5,119.5 L139.5,117.5" id="Line"></path>
                    <path d="M25.2070313,559.445312 C-22.4492188,577.914062 31.1289062,632.292969 113.128906,608.335938 C215.229079,578.506462 248.273438,544.289062 234.777344,594.566406" id="Line"></path>
                    <path d="M188.402344,697.78125 C177.378906,772.992188 313.351562,614.71875 299.056641,689.792253" id="Line"></path>
                </g>
            </g>
        </g>
    </g>
</svg>